<svg width="11" height="10" viewBox="0 0 11 10" fill="none" xmlns="http://www.w3.org/2000/svg">
<path d="M10.3245 5.42439L6.7245 9.02439C6.61178 9.13711 6.45891 9.20043 6.2995 9.20043C6.14009 9.20043 5.98722 9.13711 5.8745 9.02439C5.76178 8.91168 5.69846 8.7588 5.69846 8.59939C5.69846 8.43999 5.76178 8.28711 5.8745 8.17439L8.45 5.59989H1.1C0.94087 5.59989 0.788258 5.53668 0.675736 5.42416C0.563214 5.31163 0.5 5.15902 0.5 4.99989C0.5 4.84076 0.563214 4.68815 0.675736 4.57563C0.788258 4.46311 0.94087 4.39989 1.1 4.39989H8.45L5.8755 1.82389C5.76278 1.71118 5.69946 1.5583 5.69946 1.39889C5.69946 1.23949 5.76278 1.08661 5.8755 0.973892C5.98822 0.861175 6.14109 0.797852 6.3005 0.797852C6.45991 0.797852 6.61278 0.861175 6.7255 0.973892L10.3255 4.57389C10.3814 4.62971 10.4258 4.69603 10.4561 4.76904C10.4863 4.84205 10.5018 4.92032 10.5017 4.99935C10.5016 5.07838 10.4859 5.15661 10.4555 5.22955C10.4251 5.30249 10.3806 5.36871 10.3245 5.42439Z" fill="white"/>
</svg>
