<svg width="16" height="16" viewBox="0 0 16 16" fill="none" xmlns="http://www.w3.org/2000/svg">
<path d="M15.7672 1.114C15.7538 0.884646 15.6566 0.668196 15.4942 0.505742C15.3317 0.343289 15.1153 0.246143 14.8859 0.232749C11.7922 0.0507179 9.05858 0.415562 6.76093 1.31634C4.56249 2.17806 2.86796 3.514 1.85858 5.17962C0.482022 7.45384 0.478897 10.2148 1.82343 12.8507L0.461709 14.2124C0.374503 14.2996 0.305328 14.4032 0.258132 14.5171C0.210937 14.6311 0.186646 14.7532 0.186646 14.8765C0.186646 14.9998 0.210937 15.1219 0.258132 15.2359C0.305328 15.3498 0.374503 15.4534 0.461709 15.5406C0.637829 15.7167 0.8767 15.8156 1.12577 15.8156C1.2491 15.8156 1.37122 15.7913 1.48516 15.7441C1.5991 15.6969 1.70263 15.6278 1.78983 15.5406L3.15155 14.1788C4.45937 14.846 5.79843 15.1827 7.09296 15.1827C8.4082 15.1868 9.69898 14.8272 10.8226 14.1437C12.4883 13.1343 13.8242 11.439 14.6859 9.24134C15.5844 6.94212 15.9492 4.20775 15.7672 1.114ZM9.84843 12.5374C8.2789 13.4882 6.43749 13.5601 4.5578 12.7656L11.1625 6.16087C11.2497 6.07367 11.3189 5.97014 11.3661 5.8562C11.4133 5.74226 11.4376 5.62014 11.4376 5.49681C11.4376 5.37348 11.4133 5.25136 11.3661 5.13742C11.3189 5.02348 11.2497 4.91996 11.1625 4.83275C11.0753 4.74554 10.9718 4.67637 10.8578 4.62917C10.7439 4.58198 10.6218 4.55769 10.4984 4.55769C10.3751 4.55769 10.253 4.58198 10.139 4.62917C10.0251 4.67637 9.92157 4.74554 9.83437 4.83275L3.23437 11.4421C2.44218 9.56712 2.51405 7.72103 3.46874 6.1515C5.10233 3.45384 8.97968 1.95462 13.9375 2.06947C14.0453 7.02572 12.5461 10.9038 9.84843 12.5374Z" fill="black"/>
</svg>
