<svg width="16" height="18" viewBox="0 0 16 18" fill="none" xmlns="http://www.w3.org/2000/svg">
<path d="M13.6309 4.13598C13.5139 4.07698 13.4009 4.01198 13.2899 3.94098C12.9699 3.73298 12.6759 3.48798 12.4149 3.21098C11.7629 2.47798 11.5189 1.73398 11.4289 1.21298H11.4329C11.3579 0.779976 11.3889 0.500977 11.3939 0.500977H8.42091V11.79C8.42091 11.942 8.42091 12.092 8.41491 12.24C8.41491 12.258 8.41291 12.275 8.41191 12.295C8.41191 12.303 8.41191 12.311 8.40991 12.32V12.326C8.34591 13.149 7.86991 13.886 7.13991 14.294C6.76491 14.503 6.34191 14.613 5.90991 14.613C4.52591 14.613 3.40291 13.503 3.40291 12.134C3.40291 10.764 4.52591 9.65498 5.90991 9.65498C6.17291 9.65398 6.43291 9.69498 6.68191 9.77498L6.68591 6.80198C5.15591 6.60798 3.61391 7.05098 2.43191 8.02398C1.91891 8.46198 1.48891 8.98298 1.15891 9.56598C1.03291 9.77898 0.559909 10.632 0.502909 12.018C0.466909 12.805 0.70691 13.62 0.82191 13.956V13.964C0.89391 14.162 1.17291 14.839 1.62891 15.409C1.99591 15.867 2.42991 16.269 2.91591 16.602V16.595L2.92291 16.602C4.36191 17.563 5.95791 17.5 5.95791 17.5C6.23391 17.489 7.15891 17.5 8.20991 17.011C9.37491 16.468 10.0379 15.661 10.0379 15.661C10.4619 15.178 10.7989 14.628 11.0349 14.034C11.3039 13.34 11.3939 12.507 11.3939 12.174V6.18398C11.4299 6.20598 11.9099 6.51798 11.9099 6.51798C11.9099 6.51798 12.6019 6.95298 13.6809 7.23698C14.4559 7.43898 15.4989 7.48098 15.4989 7.48098V4.58298C15.1329 4.62198 14.3909 4.50798 13.6309 4.13598Z" fill="white" fill-opacity="0.5"/>
</svg>
